<?xml version="1.0" standalone="no"?>
<!DOCTYPE svg PUBLIC "-//W3C//DTD SVG 20010904//EN"
 "http://www.w3.org/TR/2001/REC-SVG-20010904/DTD/svg10.dtd">
<svg version="1.0" xmlns="http://www.w3.org/2000/svg"
 width="700.000000pt" height="700.000000pt" viewBox="0 0 700.000000 700.000000"
 preserveAspectRatio="xMidYMid meet">
<metadata>
Created by potrace 1.11, written by Peter Selinger 2001-2013
</metadata>
<g transform="translate(0.000000,700.000000) scale(0.100000,-0.100000)"
fill="#000000" stroke="none">
<path d="M2420 6989 c-1010 -34 -1488 -174 -1860 -548 -349 -350 -486 -767
-542 -1651 -18 -288 -18 -2292 0 -2580 49 -770 157 -1168 407 -1498 260 -344
635 -545 1175 -632 408 -65 664 -75 1900 -75 1236 0 1492 10 1900 75 898 144
1373 618 1520 1520 26 163 46 355 62 615 18 293 18 2286 0 2570 -31 489 -72
749 -157 1015 -179 557 -577 920 -1170 1069 -279 70 -590 103 -1125 121 -339
11 -1761 11 -2110 -1z m1547 -2270 c58 -28 83 -76 83 -162 0 -70 -20 -112 -73
-151 -24 -18 -43 -21 -122 -21 -101 0 -125 10 -169 68 -37 51 -37 169 1 222
47 65 191 87 280 44z m-1127 -944 l0 -754 98 -3 97 -3 0 -330 0 -330 -137 -3
-138 -3 -2 198 -3 198 -522 3 -523 2 -2 -197 -3 -198 -137 -3 -138 -3 0 335 0
335 68 3 67 3 42 85 c24 47 54 125 68 174 47 167 55 276 55 782 l0 464 555 0
555 0 0 -755z m1136 398 c-37 -121 -327 -1176 -324 -1178 2 -2 113 72 246 165
133 94 243 170 246 170 5 0 146 -206 146 -214 0 -9 -512 -358 -553 -377 -28
-12 -65 -19 -107 -19 -107 0 -188 49 -234 142 -45 89 -40 121 89 603 64 237
118 438 121 448 5 16 -9 17 -190 17 -108 0 -196 1 -196 3 0 2 20 59 45 127 25
68 45 125 45 127 0 2 151 3 336 3 315 0 335 -1 330 -17z m1594 -703 l0 -720
-145 0 -145 0 0 265 0 265 -117 0 -118 -1 -155 -264 -154 -265 -174 0 -173 0
19 28 c60 87 342 531 342 539 0 6 -19 16 -42 24 -67 22 -154 93 -199 161 -56
87 -72 151 -67 262 3 80 8 101 41 170 58 123 158 207 287 242 32 9 158 13 423
13 l377 1 0 -720z"/>
<path d="M2007 3893 c-6 -484 -21 -575 -144 -860 -4 -10 68 -13 341 -13 l346
0 0 620 0 620 -269 0 -269 0 -5 -367z"/>
<path d="M4865 3928 c-154 -53 -169 -312 -22 -379 37 -16 67 -19 240 -19 l197
0 0 205 0 205 -192 -1 c-106 0 -206 -5 -223 -11z"/>
</g>
</svg>
