<svg width="48" height="21" viewBox="0 0 48 21" fill="none" xmlns="http://www.w3.org/2000/svg">
<path d="M11.3218 11.1249H12.7398C13.4884 11.1249 13.9992 11.6542 13.9992 12.4439C13.9992 13.2422 13.4884 13.7716 12.7398 13.7716H11.3218V11.1249Z" fill="white"/>
<path d="M13.4799 8.38263C13.4799 7.69709 13.0572 7.2285 12.3878 7.2285H11.331V9.52809H12.3878C13.0572 9.52809 13.4799 9.06817 13.4799 8.38263Z" fill="white"/>
<path d="M33.8777 11.6194H36.837L35.3662 8.07891L33.8777 11.6194Z" fill="white"/>
<path fill-rule="evenodd" clip-rule="evenodd" d="M10.5 0C4.70101 0 0 4.70101 0 10.5C0 16.299 4.70101 21 10.5 21H37.5C43.299 21 48 16.299 48 10.5C48 4.70101 43.299 0 37.5 0H10.5ZM12.828 15.3769C13.7528 15.3769 14.5014 15.1252 15.0651 14.6219C15.6288 14.1099 15.9106 13.4418 15.9106 12.5914C15.9106 11.4893 15.3821 10.6215 14.4926 10.179C15.0827 9.71904 15.3821 9.06821 15.3821 8.2178C15.3821 6.63846 14.2372 5.62317 12.5286 5.62317H9.34912V15.3769H12.828ZM17.2581 15.3769H22.7715V13.8496H19.1605V11.2723H22.2695V9.73639H19.1605V7.15912H22.701V5.62317H17.2581V15.3769ZM26.2328 15.3769H28.144V7.15912H30.6893V5.62317H23.6875V7.15044H26.2328V15.3769ZM37.515 13.2856L38.431 15.3769H40.6592L36.2555 5.62317H34.4765L30.0728 15.3769H32.2922L33.1994 13.2856H37.515Z" fill="white"/>
</svg>
