<svg width="48" height="48" viewBox="0 0 48 48" fill="none" xmlns="http://www.w3.org/2000/svg">
<g clip-path="url(#clip0)">
<path d="M44.062 10.7074C40.046 4.67291 33.5326 0.812856 26.2769 0.121754C18.8355 -0.586204 11.8328 1.97593 6.82122 7.21819C3.76704 10.4209 1.75904 13.9775 0.594738 18.3433C0.0716461 20.2649 0.00415039 20.9897 0.00415039 24.0743C0.00415039 27.159 0.08852 27.9007 0.611612 29.8897C2.92334 38.5875 9.70666 45.2625 18.4642 47.437C19.2236 47.6224 20.1516 47.8247 20.5228 47.8752C22.1934 48.1112 26.2262 48.0101 28.0149 47.6898C35.4057 46.4087 41.9865 41.6385 45.3613 35.1151C49.3098 27.4961 48.7867 17.8207 44.062 10.7074ZM43.0833 29.1143C41.1428 36.2782 35.2707 41.7396 27.8461 43.2566C16.2706 45.6502 4.98196 36.9019 4.27325 24.9846C3.80078 17.2813 8.47486 9.5612 15.6463 6.17311C18.363 4.89204 20.5397 4.42007 23.847 4.40322C27.0193 4.38636 28.7911 4.72348 31.5584 5.83599C37.1268 8.061 41.4971 13.101 43.1002 19.1692C43.7751 21.6976 43.7582 26.5859 43.0833 29.1143Z" fill="white"/>
<path d="M14.5666 31.001C12.373 30.2256 10.7025 27.9501 10.3988 25.3542C9.96006 21.511 11.4112 18.5275 14.3642 17.179C15.9672 16.4542 18.8695 16.471 20.5906 17.2127C21.6368 17.6678 23.6111 19.4377 23.6111 19.9434C23.6111 20.0277 22.9361 20.4322 22.0924 20.8368L20.5738 21.5784L19.7638 20.7693C19.3082 20.3142 18.6333 19.8928 18.2114 19.8254C17.1652 19.6231 15.9334 20.0951 15.3597 20.8873C14.4316 22.1853 14.3642 25.607 15.2416 26.9555C15.6972 27.6466 16.4734 28.1355 17.1821 28.2029C18.7008 28.3209 19.0889 28.186 19.9832 27.2421L20.8944 26.2813L22.0587 26.9218C22.6999 27.2758 23.3242 27.6466 23.4423 27.7478C23.8304 28.1018 22.0249 29.9559 20.5738 30.6807C19.342 31.3044 18.9539 31.3887 17.3171 31.3718C16.3384 31.3381 15.0729 31.1864 14.5666 31.001ZM28.4876 31.001C26.3278 30.2425 24.6741 28.0343 24.3198 25.4385C23.8136 21.6796 25.3153 18.5275 28.2851 17.179C30.0063 16.4036 32.9255 16.4542 34.6635 17.3138C35.7434 17.8364 37.5489 19.4883 37.5489 19.9602C37.5489 20.0445 36.8402 20.4491 35.9797 20.8536L34.4104 21.6121L33.6004 20.7188C32.8749 19.9265 32.6724 19.8254 31.6768 19.8254C30.2931 19.8254 29.4157 20.3648 28.9432 21.4941C28.5214 22.5055 28.4539 24.9834 28.842 26.1296C29.6182 28.422 32.453 28.9783 34.056 27.141L34.7816 26.315L36.1653 27.023C36.9246 27.4107 37.5489 27.7815 37.5489 27.8658C37.5489 28.3883 35.7434 30.0571 34.5454 30.6639C33.3136 31.2876 32.9255 31.3718 31.2887 31.355C30.2594 31.3381 29.0107 31.1864 28.4876 31.001Z" fill="white"/>
</g>
<defs>
<clipPath id="clip0">
<rect width="48" height="48" fill="white"/>
</clipPath>
</defs>
</svg>
