<svg width="56" height="56" viewBox="0 0 56 56" fill="none" xmlns="http://www.w3.org/2000/svg">
<path fill-rule="evenodd" clip-rule="evenodd" d="M5.11838 5.11687L5.11688 5.11838C3.08086 7.14975 2.02105 9.74917 1.48064 13.4299C0.935615 17.142 0.933333 21.8352 0.933333 27.9949C0.933333 34.1546 0.935613 38.8479 1.48065 42.5613C2.02106 46.2432 3.08095 48.8457 5.11763 50.8824L5.11838 50.8831C7.14975 52.9191 9.74917 53.9789 13.4299 54.5194C17.142 55.0644 21.8352 55.0667 27.9949 55.0667C34.1546 55.0667 38.8479 55.0644 42.5613 54.5194C46.2432 53.9789 48.8457 52.9191 50.8824 50.8824C52.9192 48.8456 53.979 46.2455 54.5194 42.5651C55.0644 38.8529 55.0667 34.1597 55.0667 27.9949C55.0667 21.8301 55.0644 17.1369 54.5194 13.4248C53.979 9.74436 52.9192 7.14429 50.8824 5.10747C48.8458 3.07588 46.2457 2.01855 42.5654 1.47942C38.853 0.935605 34.1597 0.933333 27.9949 0.933333C21.8301 0.933333 17.1369 0.935618 13.4261 1.48063C9.74692 2.021 7.1499 3.08072 5.11838 5.11687ZM51.5423 4.44751C56 8.90517 56 15.7186 56 27.9949C56 40.2713 56 47.0847 51.5423 51.5423C47.0847 56 40.2611 56 27.9949 56C15.7287 56 8.90517 56 4.45766 51.5423C0 47.0847 0 40.2611 0 27.9949C0 15.7287 0 8.90517 4.45766 4.45766C8.90517 0 15.7186 0 27.9949 0C40.2713 0 47.0847 0 51.5423 4.44751Z" fill="white"/>
<path d="M26.8132 45.6929C24.8362 44.1672 23.3781 41.8913 22.9086 39.2402H16.5327V11.3536C19.9678 13.0793 22.4143 16.9059 22.7109 20.8576L23.6747 28.6858L23.2051 28.6108C22.1672 28.6108 21.2775 29.5862 21.2775 30.5616C21.2775 31.462 21.9695 32.2373 22.8592 32.4374L24.0206 32.7125C25.9482 29.036 27.0356 25.4345 27.0356 21.883C27.0356 18.6816 26.6155 15.5053 26.566 12.254C26.566 10.8034 27.1097 9.47782 27.9994 8.45239C28.889 9.50283 29.4327 10.8034 29.4327 12.254C29.4327 15.5053 28.9632 18.7067 28.9632 21.883C28.9632 25.4094 30.0505 29.036 31.9781 32.7125L33.1396 32.4374C34.0293 32.2373 34.7212 31.462 34.7212 30.5616C34.7212 29.5862 33.8316 28.6108 32.7936 28.6108L32.3241 28.6858L33.2879 20.8576C33.7574 16.9059 36.031 13.0793 39.466 11.3536V39.2402H33.0902C32.6206 41.8663 31.2367 44.2423 29.1856 45.6929C28.716 46.043 28.2959 46.4682 28.0241 47.0184C27.7028 46.4432 27.2827 46.043 26.8132 45.6929ZM19.5477 29.6112C19.8195 28.5608 20.5856 27.6604 21.5247 27.1102L20.7586 20.6575C20.4867 18.6566 19.6712 16.8559 18.4356 15.3803V29.5862H19.5477V29.6112ZM22.785 37.2894C22.785 36.314 22.9333 35.4136 23.131 34.5132L22.2413 34.3131C20.9316 33.888 19.9183 32.8625 19.5724 31.537H18.485V37.2894H22.785ZM27.0109 37.2894C27.0109 36.1139 26.1212 35.0635 24.9597 34.9384C24.762 35.6887 24.6137 36.464 24.6137 37.2894H27.0109ZM27.0109 39.2402H24.8856C25.2316 40.7658 25.9729 42.1414 27.0109 43.3419V39.2402ZM30.0258 33.2127C29.2103 31.6871 28.4442 30.0864 27.9747 28.4357C27.5051 30.1114 26.739 31.6871 25.9235 33.2127C26.739 33.4128 27.431 33.963 27.9747 34.5883C28.5183 33.963 29.2103 33.4128 30.0258 33.2127ZM31.3356 37.2894C31.3356 36.464 31.1873 35.6887 30.9896 34.9384C29.8281 35.0885 28.9385 36.1139 28.9385 37.2894H31.3356ZM31.0637 39.2402H28.9385V43.3419C29.9764 42.1414 30.7178 40.7658 31.0637 39.2402ZM37.5137 37.2894V31.537H36.4264C36.0804 32.8625 35.0672 33.888 33.7574 34.3131L32.8678 34.5132C33.0655 35.4136 33.2137 36.314 33.2137 37.2894H37.5137ZM37.5137 29.6112V15.4053C36.2781 16.8559 35.3885 18.6566 35.1908 20.6825L34.4247 27.1352C35.3885 27.6854 36.1298 28.5858 36.4017 29.6362H37.5137V29.6112Z" fill="white"/>
</svg>
