<svg width="72" height="72" viewBox="0 0 72 72" fill="none" xmlns="http://www.w3.org/2000/svg">
<path d="M35.0034 60.2862C32.386 58.3124 30.498 55.3089 29.8544 51.8762H21.4443V15.5757C25.9497 17.8499 29.2107 22.7843 29.5969 27.9333L30.8413 38.1884L30.1976 38.1026C28.8246 38.1026 27.666 39.347 27.666 40.6342C27.666 41.7927 28.5671 42.8225 29.7256 43.08L31.2703 43.4233C33.8019 38.6175 35.2608 33.9405 35.2608 29.3493C35.2608 25.1872 34.703 21.0251 34.6172 16.7772C34.6172 14.8892 35.3466 13.1729 36.5052 11.7998C37.6637 13.1729 38.3931 14.8892 38.3931 16.7772C38.3931 21.0251 37.7495 25.1872 37.7495 29.3493C37.7495 33.9405 39.2084 38.6604 41.74 43.4233L43.2847 43.08C44.4432 42.8225 45.3443 41.8356 45.3443 40.6342C45.3443 39.3899 44.1858 38.1026 42.8127 38.1026L42.1691 38.1884L43.4134 27.9762C44.057 22.8272 47.0177 17.8499 51.5231 15.6186V51.9191H43.113C42.4694 55.3518 40.6673 58.4412 37.964 60.3291C37.3204 60.8011 36.8055 61.316 36.4193 62.0455C36.1619 61.316 35.6041 60.7582 35.0034 60.2862ZM25.3919 39.347C25.7352 37.9739 26.765 36.8154 28.0093 36.0859L27.0224 27.6759C26.6792 25.0585 25.5635 22.6985 23.933 20.8106V39.347H25.3919ZM29.6398 49.3875C29.6398 48.1432 29.8115 46.9417 30.1118 45.7832L28.9533 45.5258C27.237 44.968 25.8639 43.6378 25.4348 41.9215H23.9759V49.4304H29.6398V49.3875ZM35.2608 49.3875C35.2608 47.8428 34.1023 46.5127 32.5576 46.2981C32.3001 47.285 32.0856 48.2719 32.0856 49.3875H35.2608ZM35.2608 51.9191H32.4718C32.9438 53.8929 33.9307 55.695 35.2608 57.2397V51.9191ZM39.2513 44.0669C38.1786 42.0931 37.1917 39.9906 36.5481 37.8452C35.9044 40.0335 34.9176 42.0931 33.8448 44.0669C34.9176 44.3243 35.8186 45.0538 36.5481 45.869C37.2346 45.0538 38.1357 44.3243 39.2513 44.0669ZM40.9676 49.3875C40.9676 48.3148 40.796 47.3279 40.4956 46.2981C38.9509 46.4697 37.7924 47.8428 37.7924 49.3875H40.9676ZM40.5815 51.9191H37.7924V57.2397C39.1226 55.695 40.1524 53.8929 40.5815 51.9191ZM49.0773 49.3875V41.8786H47.6184C47.1464 43.5949 45.8163 44.968 44.0999 45.4829L42.9414 45.7403C43.1989 46.8988 43.4134 48.1003 43.4134 49.3446H49.0773V49.3875ZM49.0773 39.347V20.8106C47.4468 22.6985 46.2883 25.0585 45.9879 27.6759L45.001 36.0859C46.2454 36.8154 47.2752 37.9739 47.6184 39.347H49.0773Z" fill="black"/>
<path d="M36.1626 1.11562C51.5667 1.11562 60.0197 1.11562 65.3832 6.47916C70.7468 11.8427 70.7468 20.2956 70.7468 35.6997C70.7468 51.1038 70.7468 59.5568 65.3832 64.9203C60.0197 70.2839 51.5667 70.2839 36.1626 70.2839C20.7585 70.2839 12.3056 70.2839 6.94205 64.9203C1.57851 59.5568 1.57851 51.1038 1.57851 35.6997C1.57851 20.2956 1.57851 11.8427 6.94205 6.47916C12.2627 1.11562 20.7585 1.11562 36.1626 1.11562ZM36.1626 0C20.5011 0 11.8336 0 6.12679 5.6639C0.462889 11.3278 0.462891 20.0382 0.462891 35.6997C0.462891 51.3613 0.462889 60.0288 6.12679 65.7356C11.7907 71.3995 20.5011 71.3995 36.1626 71.3995C51.8242 71.3995 60.4917 71.3995 66.1985 65.7356C71.8624 60.0717 71.8624 51.3613 71.8624 35.6997C71.8624 20.0382 71.8624 11.3707 66.1985 5.6639C60.4917 0 51.7813 0 36.1626 0Z" fill="black"/>
</svg>
