<?xml version="1.0" encoding="UTF-8" standalone="no"?>
<svg
   xmlns:dc="http://purl.org/dc/elements/1.1/"
   xmlns:cc="http://creativecommons.org/ns#"
   xmlns:rdf="http://www.w3.org/1999/02/22-rdf-syntax-ns#"
   xmlns:svg="http://www.w3.org/2000/svg"
   xmlns="http://www.w3.org/2000/svg"
   id="svg8"
   version="1.1"
   viewBox="0 0 64.114716 64.114716"
   height="64.114716mm"
   width="64.114716mm">
  <defs
     id="defs2" />
  <metadata
     id="metadata5">
    <rdf:RDF>
      <cc:Work
         rdf:about="">
        <dc:format>image/svg+xml</dc:format>
        <dc:type
           rdf:resource="http://purl.org/dc/dcmitype/StillImage" />
        <dc:title></dc:title>
      </cc:Work>
    </rdf:RDF>
  </metadata>
  <g
     transform="translate(-8.810383,-98.438842)"
     id="layer1">
    <g
       id="g867">
      <path
         style="fill:none;fill-opacity:1;stroke:#000000;stroke-width:2.64583;stroke-linecap:butt;stroke-linejoin:miter;stroke-miterlimit:4;stroke-dasharray:none;stroke-opacity:1"
         d="M 10.133298,115.31552 V 99.761757 h 15.553764"
         id="path847" />
      <path
         id="path853"
         d="M 56.048416,99.761757 H 71.60218 v 15.553763"
         style="fill:none;fill-opacity:1;stroke:#000000;stroke-width:2.64583;stroke-linecap:butt;stroke-linejoin:miter;stroke-miterlimit:4;stroke-dasharray:none;stroke-opacity:1" />
      <path
         style="fill:none;fill-opacity:1;stroke:#000000;stroke-width:2.64583;stroke-linecap:butt;stroke-linejoin:miter;stroke-miterlimit:4;stroke-dasharray:none;stroke-opacity:1"
         d="m 71.60218,145.67687 v 15.55377 H 56.048416"
         id="path855" />
      <path
         id="path859"
         d="M 25.687068,161.23064 H 10.133298 V 145.67687"
         style="fill:none;fill-opacity:1;stroke:#000000;stroke-width:2.64583;stroke-linecap:butt;stroke-linejoin:miter;stroke-miterlimit:4;stroke-dasharray:none;stroke-opacity:1" />
    </g>
    <g
       transform="translate(-71.986667,64.817091)"
       id="g901">
      <path
         d="m 112.85436,83.197127 c -12.12397,0 -23.237731,-6.755492 -28.819707,-17.518019 5.581976,-10.762527 16.695737,-17.518019 28.819707,-17.518019 12.12403,-10e-6 23.23784,6.755555 28.8198,17.518019 -5.58195,10.762475 -16.69577,17.518029 -28.8198,17.518019 z"
         style="fill:#000000;fill-opacity:1;stroke:none;stroke-width:3.62576;stroke-linecap:round;stroke-linejoin:round;stroke-miterlimit:4;stroke-dasharray:none;stop-color:#000000"
         id="path887" />
      <path
         style="color:#000000;font-style:normal;font-variant:normal;font-weight:normal;font-stretch:normal;font-size:medium;line-height:normal;font-family:sans-serif;font-variant-ligatures:normal;font-variant-position:normal;font-variant-caps:normal;font-variant-numeric:normal;font-variant-alternates:normal;font-variant-east-asian:normal;font-feature-settings:normal;font-variation-settings:normal;text-indent:0;text-align:start;text-decoration:none;text-decoration-line:none;text-decoration-style:solid;text-decoration-color:#000000;letter-spacing:normal;word-spacing:normal;text-transform:none;writing-mode:lr-tb;direction:ltr;text-orientation:mixed;dominant-baseline:auto;baseline-shift:baseline;text-anchor:start;white-space:normal;shape-padding:0;shape-margin:0;inline-size:0;clip-rule:nonzero;display:inline;overflow:visible;visibility:visible;opacity:1;isolation:auto;mix-blend-mode:normal;color-interpolation:sRGB;color-interpolation-filters:linearRGB;solid-color:#000000;solid-opacity:1;vector-effect:none;fill:#ffffff;fill-opacity:1;fill-rule:nonzero;stroke:none;stroke-width:2.87807;stroke-linecap:round;stroke-linejoin:round;stroke-miterlimit:4;stroke-dasharray:none;stroke-dashoffset:0;stroke-opacity:1;color-rendering:auto;image-rendering:auto;shape-rendering:auto;text-rendering:auto;enable-background:accumulate;stop-color:#000000;stop-opacity:1"
         d="m 112.85539,53.9086 c -6.48364,-2e-6 -11.77149,5.28785 -11.77149,11.771484 0,6.483635 5.28785,11.769534 11.77149,11.769532 6.287,-3e-6 11.34895,-5.001874 11.65625,-11.214844 a 1.4390351,1.4390351 0 0 0 0.11328,-0.554688 1.4390351,1.4390351 0 0 0 -0.11328,-0.560546 C 124.20148,58.909214 119.14048,53.908603 112.85539,53.9086 Z m 0,2.878906 c 4.9282,2e-6 8.89258,3.964371 8.89257,8.892578 0,4.928208 -3.96437,8.890624 -8.89257,8.890626 -4.92821,10e-7 -8.89258,-3.962416 -8.89258,-8.890626 0,-4.928209 3.96437,-8.892579 8.89258,-8.892578 z"
         id="path897" />
    </g>
  </g>
</svg>
