<svg width="25" height="24" viewBox="0 0 25 24" fill="none" xmlns="http://www.w3.org/2000/svg">
<path d="M20.1704 9.16562L14.0698 9.16561L14.07 7.34121L16.8013 7.34121C14.4651 5.19682 10.8402 5.10389 8.39071 7.2342C5.75863 9.52335 5.48063 13.5128 7.76976 16.1449C10.0589 18.777 14.0484 19.055 16.6805 16.7658C17.8188 15.7758 18.5167 14.4679 18.7573 13.0891H20.8864C20.6302 15.0597 19.6795 16.9478 18.0621 18.3544C14.5527 21.4066 9.2334 21.036 6.18116 17.5265C3.12898 14.0171 3.49964 8.6978 7.00909 5.6456C10.3183 2.76758 15.2365 2.93287 18.346 5.90323V3.34266H20.1704V9.16562Z" fill="white"/>
</svg>
