<svg width="24" height="24" viewBox="0 0 24 24" fill="none" xmlns="http://www.w3.org/2000/svg">
<path d="M19.6704 9.16562L13.5698 9.16561L13.57 7.34121L16.3013 7.34121C13.9651 5.19682 10.3402 5.10389 7.89071 7.2342C5.25863 9.52335 4.98063 13.5128 7.26976 16.1449C9.55892 18.777 13.5484 19.055 16.1805 16.7658C17.3188 15.7758 18.0167 14.4679 18.2573 13.0891H20.3864C20.1302 15.0597 19.1795 16.9478 17.5621 18.3544C14.0527 21.4066 8.7334 21.036 5.68116 17.5265C2.62898 14.0171 2.99964 8.6978 6.50909 5.6456C9.81826 2.76758 14.7365 2.93287 17.846 5.90323V3.34266H19.6704V9.16562Z" fill="black"/>
</svg>
