<svg width="24" height="24" viewBox="0 0 24 24" fill="none" xmlns="http://www.w3.org/2000/svg">
<path fill-rule="evenodd" clip-rule="evenodd" d="M15.2972 15.7814L15.7043 15.3132C16.5496 14.2388 17.0539 12.8836 17.0539 11.4104C17.0539 7.92216 14.2261 5.09435 10.7378 5.09435C7.24952 5.09435 4.42171 7.92216 4.42171 11.4104C4.42171 14.8987 7.24952 17.7265 10.7378 17.7265C12.5299 17.7265 14.1475 16.9802 15.2972 15.7814V15.7814ZM17.8173 15.9732L21.6837 19.3341L20.2259 21.011L16.3769 17.6652C14.8841 19.012 12.9067 19.8319 10.7378 19.8319C6.08676 19.8319 2.31635 16.0615 2.31635 11.4104C2.31635 6.7594 6.08676 2.98899 10.7378 2.98899C15.3889 2.98899 19.1593 6.7594 19.1593 11.4104C19.1593 13.092 18.6664 14.6584 17.8173 15.9732V15.9732Z" fill="black"/>
</svg>
